<svg xmlns="http://www.w3.org/2000/svg" width="700.762" height="276.914" viewBox="0 0 700.762 276.914">
  <path id="Intersection_3" data-name="Intersection 3" d="M3953.481,571.559l-227.056-60.84a6.835,6.835,0,0,1,3.538-13.2l227.057,60.839a6.835,6.835,0,1,1-3.539,13.2Zm-77.347-60.84a6.835,6.835,0,1,1,3.538-13.2L3997,528.952V543.1Zm-29.349-4.742-227.057-60.841a6.835,6.835,0,0,1,3.538-13.2l227.057,60.841a6.835,6.835,0,1,1-3.538,13.2Zm-149.709,0-227.057-60.841a6.835,6.835,0,0,1,3.539-13.2l227.056,60.841a6.835,6.835,0,1,1-3.538,13.2Zm126.376-51.272a6.835,6.835,0,0,1,3.538-13.2L3997,487.054v14.152Zm111.031-12.439a6.835,6.835,0,1,1,3.538-13.2l58.979,15.8v14.153ZM3789.1,447.613l-227.057-60.839a6.835,6.835,0,1,1,3.538-13.2l227.056,60.838a6.835,6.835,0,1,1-3.537,13.2Zm-203.725-9.567-227.056-60.84a6.835,6.835,0,1,1,3.538-13.2l227.056,60.839a6.835,6.835,0,1,1-3.538,13.2Zm319.757-.957-227.056-60.841a6.835,6.835,0,1,1,3.537-13.2l227.057,60.84a6.835,6.835,0,1,1-3.538,13.2Zm-376.772-56.595-227.057-60.84a6.835,6.835,0,0,1,3.539-13.2L3531.9,367.29a6.835,6.835,0,1,1-3.538,13.2Zm115.366-11.336-227.057-60.84a6.835,6.835,0,0,1,3.539-13.2l227.056,60.839a6.835,6.835,0,1,1-3.538,13.2Z" transform="translate(-3296.238 -294.879)" fill="#8462f9"/>
</svg>
