<svg xmlns="http://www.w3.org/2000/svg" width="1920" height="620.465" viewBox="0 0 1920 620.465">
  <path id="Intersection_1" data-name="Intersection 1" d="M1758.579,1080l-13.566-3.635a6.835,6.835,0,0,1,3.539-13.2L1811.4,1080Zm-120.779,0-89.526-23.989a6.835,6.835,0,1,1,3.539-13.2l138.8,37.193Zm-796.538,0-201.482-53.986a6.835,6.835,0,0,1,3.538-13.2l227.057,60.839a6.838,6.838,0,0,1,5.063,6.352ZM681.7,1080l-152.951-40.983a6.835,6.835,0,0,1,3.538-13.2L734.518,1080Zm-166.391,0-190.283-50.987a6.835,6.835,0,1,1,3.538-13.2l227.056,60.838a6.819,6.819,0,0,1,4.244,3.352ZM365.6,1080l-190.283-50.987a6.835,6.835,0,1,1,3.538-13.2l227.056,60.838a6.819,6.819,0,0,1,4.243,3.352Zm-127.642,0L62.3,1032.932v-14.153l193.572,51.868a6.839,6.839,0,0,1,4.489,9.353Zm1637.111-14.8-227.056-60.84a6.835,6.835,0,1,1,3.538-13.2L1878.608,1052a6.835,6.835,0,1,1-3.539,13.2Zm-162.739-.354-227.057-60.84a6.835,6.835,0,0,1,3.539-13.2l227.056,60.84a6.835,6.835,0,1,1-3.538,13.2Zm82.391-57.819a6.835,6.835,0,0,1,3.539-13.2l184.036,49.314v14.151ZM494.4,1028.837,267.342,968a6.835,6.835,0,1,1,3.538-13.2l227.056,60.84a6.835,6.835,0,1,1-3.538,13.2Zm-203.723-10L63.618,957.994a6.865,6.865,0,0,1-1.322-.5V945.3a6.807,6.807,0,0,1,4.86-.506l227.057,60.839a6.835,6.835,0,1,1-3.538,13.2Zm319.756-1-227.056-60.84a6.835,6.835,0,1,1,3.538-13.2l227.056,60.839a6.835,6.835,0,1,1-3.538,13.2Zm1360.625-3.667-25.178-6.746a8.335,8.335,0,1,1,4.315-16.1l25.177,6.746a8.335,8.335,0,1,1-4.315,16.1Zm-55.976-15.314-227.056-60.839a6.835,6.835,0,1,1,3.538-13.2l227.056,60.839a6.835,6.835,0,1,1-3.538,13.2Zm-149.709,0-227.056-60.839a6.835,6.835,0,1,1,3.538-13.2l227.057,60.839a6.835,6.835,0,1,1-3.539,13.2Zm-150.042-6-227.057-60.84a6.835,6.835,0,0,1,3.539-13.2l227.056,60.84a6.835,6.835,0,1,1-3.538,13.2Zm276.418-44.835a6.835,6.835,0,0,1,3.538-13.2l87.01,23.315v14.153Zm-849.539,15.86-227.056-60.84a6.835,6.835,0,1,1,3.538-13.2l227.056,60.84a6.835,6.835,0,1,1-3.539,13.2ZM233.658,958.15,62.3,912.234V898.081l174.9,46.864a6.835,6.835,0,1,1-3.539,13.2Zm604.828-4.278L611.429,893.033a6.835,6.835,0,0,1,3.538-13.2l227.057,60.84a6.835,6.835,0,1,1-3.538,13.2Zm-149.709,0L461.721,893.033a6.835,6.835,0,0,1,3.539-13.2l227.056,60.84a6.835,6.835,0,1,1-3.538,13.2Zm-146.708-2.667-227.056-60.84a6.835,6.835,0,1,1,3.538-13.2L545.608,938a6.835,6.835,0,1,1-3.539,13.2Zm-193.045-4.392L121.968,885.974a6.835,6.835,0,0,1,3.538-13.2l227.057,60.839a6.835,6.835,0,1,1-3.539,13.2ZM1857.4,937.836,1630.342,877a6.835,6.835,0,1,1,3.538-13.2l227.056,60.84a6.835,6.835,0,1,1-3.538,13.2Zm-203.723-10-227.057-60.839a6.835,6.835,0,0,1,3.538-13.2l227.056,60.84a6.835,6.835,0,1,1-3.538,13.2Zm319.756-1-227.056-60.84a6.835,6.835,0,1,1,3.538-13.2l227.056,60.839a6.835,6.835,0,1,1-3.538,13.2ZM785.8,894.857l-227.057-60.84a6.835,6.835,0,0,1,3.538-13.2l227.057,60.84a6.835,6.835,0,1,1-3.538,13.2Zm-203.724-10L355.025,824.014a6.835,6.835,0,1,1,3.538-13.2l227.056,60.839a6.835,6.835,0,1,1-3.538,13.2Zm-149.709,0L205.316,824.014a6.835,6.835,0,1,1,3.538-13.2l227.057,60.839a6.835,6.835,0,1,1-3.539,13.2Zm464.464-3L669.779,821.013a6.835,6.835,0,0,1,3.538-13.2l227.057,60.839a6.835,6.835,0,1,1-3.538,13.2Zm-614.506-3L62.3,819.894V805.741l223.572,59.906a6.835,6.835,0,1,1-3.538,13.2Zm1314.328-11.7L1369.6,806.31a6.835,6.835,0,0,1,3.538-13.2L1600.2,853.944a6.835,6.835,0,1,1-3.539,13.2Zm115.366-11.336-227.056-60.839a6.835,6.835,0,0,1,3.538-13.2l227.057,60.839a6.835,6.835,0,1,1-3.539,13.2ZM524.4,823.837,297.342,763a6.835,6.835,0,1,1,3.538-13.2l227.056,60.84a6.835,6.835,0,1,1-3.538,13.2Zm-203.723-10L93.618,752.994a6.835,6.835,0,0,1,3.538-13.2l227.057,60.839a6.835,6.835,0,1,1-3.538,13.2Zm319.756-1-227.056-60.84a6.835,6.835,0,1,1,3.538-13.2l227.056,60.839a6.835,6.835,0,1,1-3.538,13.2Zm401.779-56.957-227.056-60.84a6.835,6.835,0,1,1,3.538-13.2l227.056,60.84a6.835,6.835,0,1,1-3.539,13.2ZM263.658,753.15,62.3,699.2V685.042l204.9,54.9a6.835,6.835,0,1,1-3.539,13.2Zm574.828-7.277L611.429,685.033a6.835,6.835,0,0,1,3.538-13.2l227.057,60.84a6.835,6.835,0,1,1-3.538,13.2Zm-149.709,0L461.721,685.033a6.835,6.835,0,0,1,3.539-13.2l227.056,60.84a6.835,6.835,0,1,1-3.538,13.2Zm-146.708-2.667-227.056-60.84a6.835,6.835,0,1,1,3.538-13.2L545.608,730a6.835,6.835,0,1,1-3.539,13.2Zm-163.046-1.392L151.968,680.974a6.835,6.835,0,0,1,3.538-13.2l227.057,60.839a6.835,6.835,0,1,1-3.539,13.2ZM785.8,686.857l-227.057-60.84a6.835,6.835,0,0,1,3.538-13.2l227.057,60.84a6.835,6.835,0,1,1-3.538,13.2Zm-203.724-10L355.025,616.014a6.835,6.835,0,1,1,3.538-13.2l227.056,60.839a6.835,6.835,0,1,1-3.538,13.2Zm-149.709,0L205.316,616.014a6.835,6.835,0,1,1,3.538-13.2l227.057,60.839a6.835,6.835,0,1,1-3.539,13.2Zm464.464-3L669.779,613.013a6.835,6.835,0,0,1,3.538-13.2l227.057,60.839a6.835,6.835,0,1,1-3.538,13.2Zm-614.506-3L62.3,611.894V597.741l223.572,59.906a6.835,6.835,0,1,1-3.538,13.2ZM524.4,615.837,297.342,555a6.835,6.835,0,1,1,3.538-13.2l227.056,60.84a6.835,6.835,0,1,1-3.538,13.2Zm-203.723-10L93.618,544.994a6.835,6.835,0,0,1,3.538-13.2l227.057,60.839a6.835,6.835,0,1,1-3.538,13.2Zm319.756-1-227.056-60.84a6.835,6.835,0,1,1,3.538-13.2l227.056,60.839a6.835,6.835,0,1,1-3.538,13.2ZM263.658,545.15,62.3,491.2V477.043l204.9,54.9a6.835,6.835,0,1,1-3.539,13.2Zm115.366-11.336L151.968,472.974a6.835,6.835,0,0,1,3.538-13.2l227.057,60.839a6.835,6.835,0,1,1-3.539,13.2Z" transform="translate(-62.296 -459.535)" fill="#9a70fd"/>
</svg>
